<svg width="206" height="61" viewBox="0 0 206 61" fill="none" xmlns="http://www.w3.org/2000/svg">
<path d="M64.9149 46.2105V13.8807H75.8389C78.3751 13.8807 80.4484 14.3385 82.0586 15.2541C83.6793 16.1592 84.879 17.3852 85.6578 18.9323C86.4365 20.4793 86.8259 22.2052 86.8259 24.1101C86.8259 26.0149 86.4365 27.7461 85.6578 29.3037C84.8895 30.8612 83.7003 32.1031 82.0901 33.0292C80.48 33.9448 78.4172 34.4026 75.902 34.4026H68.0721V30.9296H75.7757C77.5122 30.9296 78.9066 30.6297 79.959 30.0298C81.0114 29.43 81.7744 28.6196 82.248 27.5988C82.7321 26.5674 82.9741 25.4045 82.9741 24.1101C82.9741 22.8156 82.7321 21.658 82.248 20.6372C81.7744 19.6163 81.0062 18.8165 79.9432 18.2377C78.8803 17.6483 77.4701 17.3537 75.7126 17.3537H68.8299V46.2105H64.9149ZM93.1324 46.2105V13.8807H112.644V17.3537H97.0474V28.2776H111.634V31.7505H97.0474V42.7376H112.897V46.2105H93.1324ZM117.932 17.3537V13.8807H142.18V17.3537H132.013V46.2105H128.098V17.3537H117.932ZM148.222 46.2105V13.8807H152.137V42.7376H167.165V46.2105H148.222ZM168.929 13.8807H173.412L182.379 28.9722H182.758L191.724 13.8807H196.207L184.526 32.8871V46.2105H180.611V32.8871L168.929 13.8807Z" fill="black"/>
<path d="M30.5 26.1971C33.9209 26.1971 36.7928 28.5151 37.6041 31.6492C38.624 35.5789 38.4861 39.8855 42.9696 42.1217C46.9493 43.4759 48.4547 45.1778 48.4547 49.7406C48.4547 53.3823 45.3389 57.2534 41.3214 57.7365C36.8294 58.4112 33.3329 57.5291 30.4988 55.9138C27.6647 57.5291 24.167 58.4124 19.681 57.7365C15.6611 57.2534 12.5465 53.3689 12.5465 49.7406C12.5465 45.2754 14.1532 43.3856 18.1256 42.0912C23.0141 39.5939 22.3577 35.2165 23.4484 31.4565C23.8968 29.9351 24.8264 28.6001 26.0978 27.6518C27.3693 26.7035 28.9139 26.1931 30.5 26.1971ZM52.8955 23.4838C51.6841 22.4309 46.7394 26.5411 45.1839 28.5736C44.2384 29.6582 43.6504 31.149 43.6504 32.7936C43.6504 36.101 46.0172 38.7826 48.9293 38.7826C51.1448 38.7826 53.0407 37.2417 53.8252 35.0506C55.349 31.11 55.4331 25.6871 52.8955 23.4838ZM8.10203 23.4838C5.56809 25.6871 5.64983 31.11 7.17605 35.0506C7.96051 37.2417 9.85517 38.7826 12.0695 38.7826C14.984 38.7826 17.3484 36.101 17.3484 32.7936C17.3484 31.149 16.7616 29.6582 15.8161 28.5736C14.2594 26.5411 9.31593 22.4309 8.10203 23.4838ZM37.0087 1.88124C49.3161 3.96988 48.4523 24.6977 38.5984 23.0275C35.7558 22.5444 33.6452 19.9555 33.3243 16.8628C32.9986 13.7177 32.2653 1.07848 37.0087 1.88124ZM23.9913 1.88124C28.7359 1.07726 28.0014 13.7165 27.6757 16.8616C27.3548 19.9555 25.2467 22.5432 22.4041 23.0263C12.5477 24.6989 11.6852 3.96988 23.9913 1.88124Z" fill="black"/>
</svg>
